<svg xmlns="http://www.w3.org/2000/svg" width="22.802" height="19.001" viewBox="0 0 22.802 19.001">
  <defs>
    <style>
      .cls-1 {
        fill: #ffcf10;
      }
    </style>
  </defs>
  <g id="组_664" data-name="组 664" transform="translate(-725.599 -573.166)">
    <rect id="矩形_749" data-name="矩形 749" class="cls-1" width="16" height="16" transform="translate(729 575)"/>
    <g id="组_526" data-name="组 526" transform="translate(-1007.848 -897.834)">
      <path id="路径_224" data-name="路径 224" d="M1754.349,1471h-19a1.9,1.9,0,0,0-1.9,1.9v15.2a1.9,1.9,0,0,0,1.9,1.9h19a1.9,1.9,0,0,0,1.9-1.9v-15.2A1.9,1.9,0,0,0,1754.349,1471Zm0,17.1h-19v-15.2h19Z" transform="translate(0 0)"/>
      <rect id="矩形_680" data-name="矩形 680" width="15.201" height="1.9" transform="translate(1737.247 1474.8)"/>
      <rect id="矩形_681" data-name="矩形 681" width="15.201" height="1.9" transform="translate(1737.247 1484.309)"/>
      <path id="路径_225" data-name="路径 225" d="M1865.247,1730.83h1.9v-.988h9.5v-1.9h-9.5V1727h-1.9v.942h-3.8v1.9h3.8Z" transform="translate(-124.2 -248.4)"/>
    </g>
  </g>
</svg>
