<?xml version="1.0" encoding="utf-8"?>
<!-- Generator: Adobe Illustrator 23.0.0, SVG Export Plug-In . SVG Version: 6.00 Build 0)  -->
<svg version="1.1" id="图层_1" xmlns="http://www.w3.org/2000/svg" xmlns:xlink="http://www.w3.org/1999/xlink" x="0px" y="0px"
	 viewBox="0 0 1024 1024" style="enable-background:new 0 0 1024 1024;" xml:space="preserve">
<style type="text/css">
	.st0{fill:#FFCF10;}
	.st1{fill-rule:evenodd;clip-rule:evenodd;}
</style>
<rect x="192" y="256" class="st0" width="640" height="320"/>
<path d="M832,192.5v447.29H192V192.5H832 M832,128.5H192c-35.35,0-64,28.65-64,64v447.29c0,35.35,28.65,64,64,64h640
	c35.35,0,64-28.65,64-64V192.5C896,157.15,867.35,128.5,832,128.5L832,128.5z"/>
<g>
	<rect x="384.09" y="659.34" class="st1" width="63.81" height="226.72"/>
	<path d="M447.78,659.46v226.47h-63.56V659.46H447.78 M448.03,659.21h-64.06v226.97h64.06V659.21L448.03,659.21z"/>
</g>
<g>
	<rect x="576.09" y="659.34" class="st1" width="63.81" height="226.72"/>
	<path d="M639.78,659.46v226.47h-63.56V659.46H639.78 M640.03,659.21h-64.06v226.97h64.06V659.21L640.03,659.21z"/>
</g>
<g>
	<path class="st1" d="M288.03,895.94c-17.59,0-31.91-14.31-31.91-31.91s14.31-31.91,31.91-31.91h447.94
		c17.59,0,31.91,14.31,31.91,31.91s-14.31,31.91-31.91,31.91H288.03z"/>
	<path d="M735.97,832.25c17.52,0,31.78,14.26,31.78,31.78s-14.26,31.78-31.78,31.78H288.03c-17.52,0-31.78-14.26-31.78-31.78
		s14.26-31.78,31.78-31.78H735.97 M735.97,832H288.03c-17.69,0-32.03,14.34-32.03,32.03s14.34,32.03,32.03,32.03h447.94
		c17.69,0,32.03-14.34,32.03-32.03S753.66,832,735.97,832L735.97,832z"/>
</g>
<g>
	<rect x="384" y="384" width="256" height="64"/>
</g>
<g>
	<rect x="480" y="288" width="64" height="256"/>
</g>
</svg>
