<?xml version="1.0" encoding="utf-8"?>
<!-- Generator: Adobe Illustrator 23.0.0, SVG Export Plug-In . SVG Version: 6.00 Build 0)  -->
<svg version="1.1" id="图层_1" xmlns="http://www.w3.org/2000/svg" xmlns:xlink="http://www.w3.org/1999/xlink" x="0px" y="0px"
	 viewBox="0 0 1024 1024" style="enable-background:new 0 0 1024 1024;" xml:space="preserve">
<style type="text/css">
	.st0{fill:none;stroke:#000000;stroke-width:64;stroke-miterlimit:10;}
</style>
<path d="M832,192v512H640h-26.51l-18.74,18.75l-82.77,82.77l-82.88-82.79L410.36,704h-26.49H192V192H832 M832,128H192
	c-35.35,0-64,28.65-64,64v512c0,35.35,28.65,64,64,64h191.87L512,896l128-128h192c35.35,0,64-28.65,64-64V192
	C896,156.65,867.35,128,832,128L832,128z"/>
<g>
	<rect x="258.77" y="416.5" transform="matrix(0.1691 -0.9856 0.9856 0.1691 -69.7973 814.2078)" width="378.45" height="64"/>
</g>
<g>
	<rect x="386.77" y="416.5" transform="matrix(0.1691 -0.9856 0.9856 0.1691 36.558 940.3644)" width="378.45" height="64"/>
</g>
<g>
	<rect x="320" y="479.89" width="355.18" height="64"/>
</g>
<g>
	<rect x="353.35" y="352.19" transform="matrix(1 -1.586912e-03 1.586912e-03 1 -0.609 0.8394)" width="350.65" height="64"/>
</g>
<path class="st0" d="M504.82,586.29"/>
<path class="st0" d="M568.82,266.29"/>
<g>
	<path class="st0" d="M1713.06,1238.96"/>
</g>
</svg>
