<?xml version="1.0" encoding="utf-8"?>
<!-- Generator: Adobe Illustrator 23.0.2, SVG Export Plug-In . SVG Version: 6.00 Build 0)  -->
<svg version="1.1" id="图层_1" xmlns="http://www.w3.org/2000/svg" xmlns:xlink="http://www.w3.org/1999/xlink" x="0px" y="0px"
	 viewBox="0 0 1024 1024" style="enable-background:new 0 0 1024 1024;" xml:space="preserve">
<style type="text/css">
	.st0{fill-rule:evenodd;clip-rule:evenodd;}
</style>
<path d="M832,192v640H192V192H832 M832,128H192c-35.35,0-64,28.65-64,64v640c0,35.35,28.65,64,64,64h640c35.35,0,64-28.65,64-64V192
	C896,156.65,867.35,128,832,128L832,128z"/>
<g>
	<rect x="256.5" y="704.06" class="st0" width="511" height="63.81"/>
	<path d="M767,704.19v63.56H257v-63.56H767 M768,703.94H256V768h512V703.94L768,703.94z"/>
</g>
<g>
	<rect x="256.25" y="576.12" class="st0" width="511.5" height="63.81"/>
	<path d="M767.5,576.25v63.56h-511v-63.56H767.5 M768,576H256v64.06h512V576L768,576z"/>
</g>
<g>
	<rect x="320.24" y="320.09" class="st0" width="63.81" height="191.94"/>
	<path d="M320.37,320.19h63.56v191.75h-63.56V320.19 M320.12,320v192.12h64.06V320H320.12L320.12,320z"/>
</g>
<g>
	<rect x="256.24" y="384.12" class="st0" width="191.81" height="63.75"/>
	<path d="M256.33,447.75v-63.5h191.62v63.5H256.33 M256.15,448h192v-64h-192V448L256.15,448z"/>
</g>
<g>
	<rect x="512.12" y="256.12" class="st0" width="254.75" height="63.75"/>
	<path d="M512.25,319.75v-63.5h254.5v63.5H512.25 M512,320h255v-64H512V320L512,320z"/>
</g>
<g>
	<rect x="512.12" y="384.12" class="st0" width="254.75" height="63.75"/>
	<path d="M512.25,447.75v-63.5h254.5v63.5H512.25 M512,448h255v-64H512V448L512,448z"/>
</g>
<g>
	
		<rect x="270.94" y="236.84" transform="matrix(0.7071 -0.7071 0.7071 0.7071 -125.3245 302.7679)" class="st0" width="63.75" height="131.65"/>
	<path d="M371.76,326.71l-44.9,44.9l-93-93l44.9-44.9L371.76,326.71 M372.03,326.63l-93.18-93.18l-45.25,45.25l93.18,93.18
		L372.03,326.63L372.03,326.63z"/>
</g>
<g>
	
		<rect x="335.46" y="270.76" transform="matrix(0.7071 -0.7071 0.7071 0.7071 -96.4473 372.42)" class="st0" width="131.74" height="63.75"/>
	<path d="M425.41,233.65l44.9,44.9l-93.06,93.06l-44.9-44.9L425.41,233.65 M425.32,233.38l-93.24,93.25l45.25,45.25l93.24-93.25
		L425.32,233.38L425.32,233.38z"/>
</g>
</svg>
