<?xml version="1.0" encoding="utf-8"?>
<!-- Generator: Adobe Illustrator 23.0.0, SVG Export Plug-In . SVG Version: 6.00 Build 0)  -->
<svg version="1.1" id="图层_1" xmlns="http://www.w3.org/2000/svg" xmlns:xlink="http://www.w3.org/1999/xlink" x="0px" y="0px"
	 viewBox="0 0 1024 1024" style="enable-background:new 0 0 1024 1024;" xml:space="preserve">
<style type="text/css">
	.st0{fill:#231815;}
</style>
<g>
	<path class="st0" d="M854.63,886.63c-8.18,0-16.36-3.12-22.61-9.36L146.24,192.44c-12.51-12.49-12.52-32.75-0.03-45.25
		s32.75-12.52,45.25-0.03l685.77,684.84c12.5,12.49,12.52,32.75,0.03,45.25C871.02,883.5,862.82,886.63,854.63,886.63z"/>
</g>
<g>
	<path class="st0" d="M169.37,886.63c-8.19,0-16.38-3.12-22.63-9.37c-12.5-12.5-12.5-32.76,0-45.25l685.25-685.25
		c12.5-12.5,32.76-12.5,45.25,0c12.5,12.5,12.5,32.76,0,45.25L192,877.26C185.75,883.5,177.56,886.63,169.37,886.63z"/>
</g>
</svg>
