<svg xmlns="http://www.w3.org/2000/svg" width="22.158" height="18.199" viewBox="0 0 22.158 18.199">
  <defs>
    <style>
      .cls-1 {
        fill: #ffcf10;
      }
    </style>
  </defs>
  <g id="组_662" data-name="组 662" transform="translate(-829.921 -495.4)">
    <rect id="矩形_747" data-name="矩形 747" class="cls-1" width="22" height="15" transform="translate(830 497)"/>
    <g id="组_525" data-name="组 525" transform="translate(-766.419 -1001.791)">
      <path id="路径_221" data-name="路径 221" d="M1616.651,1497.191h-18.465a1.847,1.847,0,0,0-1.846,1.847v3.693h1.846v-3.693h18.465v3.693h1.846v-3.693A1.847,1.847,0,0,0,1616.651,1497.191Z" transform="translate(0 0)"/>
      <path id="路径_222" data-name="路径 222" d="M1616.651,1948.884h-18.465v-3.693h-1.846v3.693a1.847,1.847,0,0,0,1.846,1.846h18.465a1.846,1.846,0,0,0,1.846-1.846v-3.693h-1.846Z" transform="translate(0 -435.34)"/>
      <path id="路径_223" data-name="路径 223" d="M1724.341,1694.917v1.847h4l3.378-2.536,3.378,2.536h4.016v-1.847h-3.4l-2.456-1.844,2.456-1.844h3.4v-1.846H1735.1l-3.378,2.536-3.378-2.536h-4v1.846h3.385l2.456,1.844-2.456,1.844Z" transform="translate(-124.308 -186.779)"/>
    </g>
  </g>
</svg>
