<?xml version="1.0" encoding="utf-8"?>
<!-- Generator: Adobe Illustrator 23.0.0, SVG Export Plug-In . SVG Version: 6.00 Build 0)  -->
<svg version="1.1" id="图层_1" xmlns="http://www.w3.org/2000/svg" xmlns:xlink="http://www.w3.org/1999/xlink" x="0px" y="0px"
	 viewBox="0 0 1024 1024" style="enable-background:new 0 0 1024 1024;" xml:space="preserve">
<g>
	<path d="M831.72,191.72h-640c-35.35,0-64,28.65-64,64v128h64v-128h640v86.11v41.89h64v-41.89v-86.11
		C895.72,220.37,867.07,191.72,831.72,191.72z"/>
	<path d="M831.72,767.72h-640v-128h-64v128c0,35.35,28.65,64,64,64h640c35.35,0,64-28.65,64-64v-128h-64V767.72z"/>
	<polygon points="255.72,575.72 255.72,639.72 394.4,639.72 511.47,551.83 628.55,639.72 767.72,639.72 767.72,575.72 649.9,575.72 
		564.77,511.82 649.9,447.91 767.72,447.91 767.72,383.91 628.55,383.91 511.47,471.8 394.4,383.91 255.72,383.91 255.72,447.91 
		373.05,447.91 458.17,511.82 373.05,575.72 	"/>
</g>
</svg>
