<?xml version="1.0" encoding="utf-8"?>
<!-- Generator: Adobe Illustrator 23.0.0, SVG Export Plug-In . SVG Version: 6.00 Build 0)  -->
<svg version="1.1" id="图层_1" xmlns="http://www.w3.org/2000/svg" xmlns:xlink="http://www.w3.org/1999/xlink" x="0px" y="0px"
	 viewBox="0 0 1024 1024" style="enable-background:new 0 0 1024 1024;" xml:space="preserve">
<style type="text/css">
	.st0{fill-rule:evenodd;clip-rule:evenodd;}
</style>
<path d="M704,192v640H320V192H704 M704,128H320c-35.35,0-64,28.65-64,64v640c0,35.35,28.65,64,64,64h384c35.35,0,64-28.65,64-64V192
	C768,156.65,739.35,128,704,128L704,128z"/>
<g>
	<rect x="384.13" y="704.06" class="st0" width="128.03" height="63.81"/>
	<path d="M512.03,704.19v63.56H384.25v-63.56H512.03 M512.28,703.94H384V768h128.28V703.94L512.28,703.94z"/>
</g>
<g>
	<rect x="384.13" y="576.13" class="st0" width="255.75" height="63.81"/>
	<path d="M639.75,576.25v63.56h-255.5v-63.56H639.75 M640,576H384v64.06h256V576L640,576z"/>
</g>
<g>
	<rect x="384.13" y="448.19" class="st0" width="255.75" height="63.81"/>
	<path d="M639.75,448.31v63.56h-255.5v-63.56H639.75 M640,448.06H384v64.06h256V448.06L640,448.06z"/>
</g>
<path class="st0" d="M160,768L160,768c-17.67,0-32-14.33-32-32V288c0-17.67,14.33-32,32-32h0c17.67,0,32,14.33,32,32v448
	C192,753.67,177.67,768,160,768z"/>
<path class="st0" d="M864,768L864,768c-17.67,0-32-14.33-32-32V288c0-17.67,14.33-32,32-32h0c17.67,0,32,14.33,32,32v448
	C896,753.67,881.67,768,864,768z"/>
<g>
	
		<ellipse transform="matrix(0.9239 -0.3827 0.3827 0.9239 -88.3567 195.8005)" class="st0" cx="448" cy="320" rx="63.87" ry="63.88"/>
	<path d="M448,256.25c35.15,0,63.75,28.6,63.75,63.75s-28.6,63.75-63.75,63.75s-63.75-28.6-63.75-63.75S412.85,256.25,448,256.25
		 M448,256c-35.35,0-64,28.65-64,64c0,35.35,28.65,64,64,64s64-28.65,64-64C512,284.65,483.35,256,448,256L448,256z"/>
</g>
</svg>
