<?xml version="1.0" encoding="utf-8"?>
<!-- Generator: Adobe Illustrator 23.0.0, SVG Export Plug-In . SVG Version: 6.00 Build 0)  -->
<svg version="1.1" id="图层_1" xmlns="http://www.w3.org/2000/svg" xmlns:xlink="http://www.w3.org/1999/xlink" x="0px" y="0px"
	 viewBox="0 0 1024 1024" style="enable-background:new 0 0 1024 1024;" xml:space="preserve">
<style type="text/css">
	.st0{fill:#231815;}
</style>
<path class="st0" d="M406.63,662.63l-45.25-45.25L850.94,127.8l45.25,45.25L406.63,662.63z M895.72,805.05V448
	c0-17.67-14.33-32-32-32s-32,14.33-32,32v357.05c0,14.71-11.96,26.67-26.67,26.67H218.36c-14.71,0-26.67-11.96-26.67-26.67V218.36
	c0-14.71,11.96-26.67,26.67-26.67H576c17.67,0,32-14.33,32-32c0-17.67-14.33-32-32-32H218.36c-50,0-90.67,40.67-90.67,90.67v586.69
	c0,50,40.67,90.67,90.67,90.67h586.69C855.05,895.72,895.72,855.05,895.72,805.05z"/>
</svg>
