<?xml version="1.0" encoding="utf-8"?>
<!-- Generator: Adobe Illustrator 23.0.0, SVG Export Plug-In . SVG Version: 6.00 Build 0)  -->
<svg version="1.1" id="图层_1" xmlns="http://www.w3.org/2000/svg" xmlns:xlink="http://www.w3.org/1999/xlink" x="0px" y="0px"
	 viewBox="0 0 1024 1024" style="enable-background:new 0 0 1024 1024;" xml:space="preserve">
<g>
	<path d="M433.97,895.92c-9.11,0-18.17-2.52-26.26-7.51c-14.85-9.18-23.71-25.08-23.71-42.53V585.06L149.52,204.17
		c-9.49-15.41-9.9-34.8-1.07-50.6s25.55-25.61,43.65-25.61h639.7c18.1,0,34.82,9.81,43.65,25.61c8.83,15.8,8.42,35.18-1.06,50.59
		L640,585.06v182.82c0,19.06-10.59,36.2-27.64,44.72l-156,78C449.25,894.15,441.59,895.92,433.97,895.92z M217.16,191.96
		l223.42,362.93c4.85,7.89,7.42,16.95,7.42,26.21v242.13l128-64V581.09c0-9.26,2.57-18.32,7.42-26.21l223.33-362.93H217.16z"/>
</g>
</svg>
