<svg xmlns="http://www.w3.org/2000/svg" width="14" height="14" viewBox="0 0 14 14">
  <defs>
    <style>
      .cls-1 {
        fill: #aaa;
      }

      .cls-2 {
        fill: #fff;
      }
    </style>
  </defs>
  <g id="组_555" data-name="组 555" transform="translate(-474 -398)">
    <circle id="椭圆_103" data-name="椭圆 103" class="cls-1" cx="7" cy="7" r="7" transform="translate(474 398)"/>
    <g id="组_554" data-name="组 554" transform="translate(-743.162 -639.988)">
      <path id="路径_104" data-name="路径 104" class="cls-1" d="M1224.162,1039.154a5.812,5.812,0,1,1-2.27.458,5.792,5.792,0,0,1,2.27-.458m0-1.167a7,7,0,1,0,7,7,7,7,0,0,0-7-7Z" transform="translate(0)"/>
      <rect id="矩形_451" data-name="矩形 451" class="cls-2" width="1.2" height="1.2" transform="translate(1223.568 1048.46)"/>
      <g id="组_295" data-name="组 295" transform="translate(1221.163 1040.821)">
        <path id="路径_105" data-name="路径 105" class="cls-2" d="M1443.591,1205.1l0-2.388h.6a1.761,1.761,0,0,0,1.8-1.761,1.8,1.8,0,1,0-3.6,0h-1.2a3,3,0,1,1,6,0,2.923,2.923,0,0,1-.883,2.106,2.985,2.985,0,0,1-1.515.8v1.245Z" transform="translate(-1441.191 -1197.956)"/>
      </g>
    </g>
  </g>
</svg>
