<?xml version="1.0" encoding="utf-8"?>
<!-- Generator: Adobe Illustrator 23.0.0, SVG Export Plug-In . SVG Version: 6.00 Build 0)  -->
<svg version="1.1" id="图层_1" xmlns="http://www.w3.org/2000/svg" xmlns:xlink="http://www.w3.org/1999/xlink" x="0px" y="0px"
	 viewBox="0 0 1024 1024" style="enable-background:new 0 0 1024 1024;" xml:space="preserve">
<g>
	<path d="M484.84,349.14c8.84-1.47,17.91-2.24,27.16-2.24c90.86,0,164.52,73.66,164.52,164.52c0,9.25-0.78,18.32-2.24,27.16
		L789.5,653.8c65.95-45.67,106.47-100.62,106.47-141.77c0-84.76-171.92-228.14-384-228.14c-29.17,0-57.57,2.67-84.88,7.49
		L484.84,349.14z"/>
	<path d="M511.95,603.35c36.93,0,68.73-21.96,83.06-53.53L474.31,429.11c-31.57,14.33-53.53,46.13-53.53,83.06
		C420.78,562.53,461.6,603.35,511.95,603.35z"/>
	<path d="M648.49,603.29c-29.56,43.82-79.66,72.64-136.49,72.64c-90.86,0-164.52-73.66-164.52-164.52
		c0-56.83,28.82-106.93,72.64-136.49l-65.19-65.19c-133.78,44.75-226.96,138.04-226.96,202.29c0,87.28,171.92,228.14,384,228.14
		c82.11,0,158.2-21.5,220.63-52.76L648.49,603.29z"/>
</g>
<g>
	<rect x="479.99" y="64" transform="matrix(0.7071 -0.7071 0.7071 0.7071 -212.074 511.9925)" width="64" height="895.98"/>
</g>
</svg>
