<svg xmlns="http://www.w3.org/2000/svg" width="69.625" height="81.998" viewBox="0 0 69.625 81.998">
  <path id="路径_39" data-name="路径 39" d="M113.2,154.818c-1.694-1.9-4.322-3.912-5.338-6.294-1.458-3.408.2-6.827.143-10.328a29.481,29.481,0,0,0-1.817-8.89,24.311,24.311,0,0,0-7.946-10.7,32.631,32.631,0,0,0-22.165-8.439c-17.269,0-31.262,12.8-31.262,28.592a26.1,26.1,0,0,0,.2,3.121c.113,6.848,2.259,15.03,8.429,24.188,0,0,8.614,17.165-8.624,26.036l37.924.062s2.875-11.3,7.474-11.3c3.891,0,7.874.288,11.786.072a3.155,3.155,0,0,0,1.858-.144c.021,0,.052-.011.072-.011v-.031c2.679-1.334.821-7.546.821-7.546,1.509-.647,2.505-1.735,2.505-2.546v-.174c0-1.017-1.529-1.868-3.655-2.166h.986c1.6,0,2.915-.873,2.915-1.951v-.144a1.405,1.405,0,0,0-.288-.832c.288-1.283,1.427-6.868,1.684-6.879C117.929,158.083,113.2,154.818,113.2,154.818ZM84.264,134.383A5.874,5.874,0,0,1,78.956,131l-4.394,2.536a8.673,8.673,0,0,1,.883,3.788,8.84,8.84,0,0,1-1.488,4.907L82.2,147a2.933,2.933,0,1,1-.873,2.085,2.707,2.707,0,0,1,.165-.811l-8.48-4.9a8.814,8.814,0,1,1,.822-11.119l4.661-2.69a6.072,6.072,0,0,1-.113-1.068,5.883,5.883,0,1,1,5.883,5.883Z" transform="translate(-44.811 -110.17)"/>
</svg>
