<svg xmlns="http://www.w3.org/2000/svg" xmlns:xlink="http://www.w3.org/1999/xlink" width="27.97" height="28" viewBox="0 0 27.97 28">
  <defs>
    <style>
      .cls-1 {
        fill: none;
      }

      .cls-2 {
        clip-path: url(#clip-path);
      }
    </style>
    <clipPath id="clip-path">
      <rect id="矩形_401" data-name="矩形 401" class="cls-1" width="27.97" height="28"/>
    </clipPath>
  </defs>
  <g id="组_164" data-name="组 164" transform="translate(112 -11.891)">
    <g id="组_163" data-name="组 163" transform="translate(-112 11.89)">
      <g id="组_162" data-name="组 162" class="cls-2" transform="translate(0 0)">
        <path id="路径_53" data-name="路径 53" d="M-100.161,39.549c.045-.429.075-.806.126-1.176.087-.646.192-1.285.287-1.928.045-.323.075-.647.114-.969l.2-1.489c.039-.288.077-.579.109-.868.044-.433.075-.867.122-1.3.024-.232.073-.461.1-.692a3.545,3.545,0,0,0-.275-1.35,3.883,3.883,0,0,1-.125-.475c-.005-.051.094-.165.146-.165.928-.011,1.854-.007,2.78-.007.133,0,.182.031.133.181-.1.314-.186.631-.273.947a3.626,3.626,0,0,0-.1.382,3.546,3.546,0,0,0,.08,1.315,8.12,8.12,0,0,1,.117.943c.042.459.067.92.122,1.378.086.669.193,1.336.286,2,.044.3.08.6.108.894.046.45.079.9.122,1.351.026.275.063.549.107.82.007.052.077.095.163.191.13-.5.233-.924.352-1.348s.256-.864.38-1.3c.086-.3.157-.608.238-.912.093-.33.191-.657.28-.989.084-.3.154-.606.24-.908.087-.324.184-.647.275-.971.08-.3.159-.6.243-.9.093-.34.192-.677.285-1.018.083-.31.153-.624.236-.932.088-.324.189-.645.28-.966.082-.295.154-.591.235-.885.035-.135.038-.316.126-.389a.533.533,0,0,1,.434-.1c.56.2,1.1.444,1.656.659.571.223,1.148.429,1.721.647q.683.26,1.362.529a7.554,7.554,0,0,1,1.649.879A2.888,2.888,0,0,1-84.7,31.889a2.724,2.724,0,0,1,.115.742c.045.457.07.918.118,1.378.058.54.129,1.078.192,1.618l.007.074c.04.546.079,1.088.122,1.632.03.377.06.754.111,1.125a1.227,1.227,0,0,1-1.213,1.221c-3.522-.031-7.043-.023-10.569-.023q-7.419,0-14.842.016a1.188,1.188,0,0,1-1.064-.445,1.694,1.694,0,0,1-.215-1.406.65.65,0,0,0,.038-.144c.044-.536.073-1.072.126-1.607.048-.456.122-.91.182-1.364l.009-.075a14.275,14.275,0,0,1,.133-1.6,3.287,3.287,0,0,1,.362-1.527,4.648,4.648,0,0,1,1.248-1.158,12.841,12.841,0,0,1,2.4-1.036c.643-.246,1.274-.516,1.915-.771.538-.214,1.08-.426,1.625-.624a.411.411,0,0,1,.539.337c.077.333.191.661.28.994.082.3.153.606.235.91.089.331.192.659.284.992.079.293.152.589.234.883.128.466.263.929.391,1.4.082.293.154.587.231.88.095.342.2.678.289,1.018.083.3.151.608.235.912.091.331.191.659.28.99.084.3.16.606.239.911.108.42.213.843.331,1.262.012.052.093.083.177.153Zm-4.389-20.833c.1-.535.212-1.2.345-1.858a6.2,6.2,0,0,1,.94-2.159,6.568,6.568,0,0,1,2.521-2.3,4.843,4.843,0,0,1,1.505-.526,8.963,8.963,0,0,1,1.191-.163,6.076,6.076,0,0,1,1.239.147,6.237,6.237,0,0,1,1.124.331,6.291,6.291,0,0,1,2.53,1.884,7.607,7.607,0,0,1,1.185,2.009,7.865,7.865,0,0,1,.341,1.306,5.978,5.978,0,0,1,.172,1.21,12.95,12.95,0,0,1-.161,1.667c-.044.326-.138.643-.214.964a7.292,7.292,0,0,1-.7,1.73,7.7,7.7,0,0,1-2,2.427,5.61,5.61,0,0,1-1.824,1,4.91,4.91,0,0,1-1.828.286,5.558,5.558,0,0,1-2.787-.954,6.509,6.509,0,0,1-1.873-1.856,14.2,14.2,0,0,1-.919-1.616,10.353,10.353,0,0,1-.517-1.5,4.765,4.765,0,0,1-.122-.789c-.045-.368-.086-.732-.144-1.241Zm0,0" transform="translate(111.999 -11.713)"/>
      </g>
    </g>
  </g>
</svg>
