<svg xmlns="http://www.w3.org/2000/svg" xmlns:xlink="http://www.w3.org/1999/xlink" width="22.002" height="22.025" viewBox="0 0 22.002 22.025">
  <defs>
    <style>
      .cls-1 {
        clip-path: url(#clip-path);
      }

      .cls-2 {
        fill: #ebebeb;
      }
    </style>
    <clipPath id="clip-path">
      <rect id="矩形_400" data-name="矩形 400" width="22.002" height="22.025"/>
    </clipPath>
  </defs>
  <g id="组_159" data-name="组 159" transform="translate(113 -10.891)">
    <g id="组_158" data-name="组 158" transform="translate(-113 10.89)">
      <g id="组_157" data-name="组 157" class="cls-1" transform="translate(0 0)">
        <path id="路径_47" data-name="路径 47" d="M-92.292,140.755h-19.67a1.157,1.157,0,0,0-1.157,1.157v1.157a1.157,1.157,0,0,0,.339.818,1.157,1.157,0,0,0,.818.339v12.728a2.314,2.314,0,0,0,.678,1.636,2.314,2.314,0,0,0,1.636.678h15.042a2.314,2.314,0,0,0,1.636-.678,2.314,2.314,0,0,0,.678-1.636V144.226a1.157,1.157,0,0,0,1.157-1.157v-1.157a1.157,1.157,0,0,0-1.157-1.157Zm0,0" transform="translate(113.117 -137.27)"/>
        <path id="路径_48" data-name="路径 48" d="M254.7,17.372a1.157,1.157,0,0,1-.816-1.973l3.471-3.471a1.154,1.154,0,0,1,1.632,1.631l-3.471,3.471a1.158,1.158,0,0,1-.816.341Zm0,0" transform="translate(-243.708 -11.573)"/>
        <path id="路径_49" data-name="路径 49" d="M128.823,17.372a1.158,1.158,0,0,1-.816-.341l-3.471-3.471a1.154,1.154,0,1,1,1.631-1.631l3.471,3.471a1.157,1.157,0,0,1-.816,1.973Zm0,0" transform="translate(-117.834 -11.573)"/>
      </g>
    </g>
    <path id="路径_50" data-name="路径 50" class="cls-2" d="M254.708,334.779a1.2,1.2,0,0,1,1.344,1.375V344.4a1.344,1.344,0,1,1-2.688,0v-8.251a1.2,1.2,0,0,1,1.344-1.375Zm0,0" transform="translate(-356.717 -317.27)"/>
  </g>
</svg>
