<svg xmlns="http://www.w3.org/2000/svg" width="28" height="24.193" viewBox="0 0 28 24.193">
  <g id="组_156" data-name="组 156" transform="translate(177 -11.891)">
    <path id="路径_46" data-name="路径 46" d="M-154.644,34.378h-16.717a.853.853,0,0,0-.853.853.853.853,0,0,0,.853.853h16.717a.853.853,0,0,0,.853-.853.853.853,0,0,0-.853-.853Zm5.575-15.712a1.757,1.757,0,0,0-1.782-1.273,1.782,1.782,0,0,0-1.22.613,1.781,1.781,0,0,0-.428,1.3,1.871,1.871,0,0,0,.586,1.273l-.242.153-4.983,3.131c-.445.274-.6.229-.846-.235l-3.214-6.071-1.165-2.157c1.171-.821,1.438-1.909.7-2.838l-.064-.108a1.718,1.718,0,0,0-1.242-.559,1.718,1.718,0,0,0-1.259.521,1.763,1.763,0,0,0-.528,1.362,1.846,1.846,0,0,0,1.12,1.616l-4.455,8.336a.423.423,0,0,1-.07.114.4.4,0,0,1-.28.147.4.4,0,0,1-.3-.1c-.49-.3-.98-.636-1.47-.916l-3.882-2.437.172-.2a1.814,1.814,0,0,0,.235-1.973,1.763,1.763,0,0,0-1.018-.9,1.737,1.737,0,0,0-1.345.107,1.737,1.737,0,0,0-.863,1.038l-.089.261v.636a4.793,4.793,0,0,0,.2.515,1.737,1.737,0,0,0,1.655.961c.216.757.433,1.508.636,2.259q1.2,4.162,2.38,8.33c.127.452.274.566.745.566H-154.6c.439,0,.592-.121.719-.566l2.915-10.277a1.029,1.029,0,0,1,.1-.318A1.826,1.826,0,0,0-149,19.5v-.6a.851.851,0,0,0-.07-.235Zm0,0"/>
  </g>
</svg>
