<?xml version="1.0" encoding="utf-8"?>
<!-- Generator: Adobe Illustrator 23.0.0, SVG Export Plug-In . SVG Version: 6.00 Build 0)  -->
<svg version="1.1" id="图层_1" xmlns="http://www.w3.org/2000/svg" xmlns:xlink="http://www.w3.org/1999/xlink" x="0px" y="0px"
	 viewBox="0 0 1024 1024" style="enable-background:new 0 0 1024 1024;" xml:space="preserve">
<style type="text/css">
	.st0{fill:#231815;}
</style>
<g>
	<path class="st0" d="M831.97,736c-5.6,0-11.28-1.47-16.43-4.57l-640-384c-15.15-9.09-20.07-28.75-10.98-43.9
		c9.09-15.15,28.75-20.07,43.9-10.98l640,384c15.15,9.09,20.07,28.75,10.98,43.9C853.44,730.46,842.84,736,831.97,736z"/>
</g>
<g>
	<path class="st0" d="M192.03,736c-10.87,0-21.47-5.54-27.47-15.54c-9.09-15.15-4.18-34.81,10.98-43.9l640-384
		c15.16-9.09,34.81-4.18,43.9,10.98c9.09,15.15,4.18,34.81-10.98,43.9l-640,384C203.31,734.53,197.63,736,192.03,736z"/>
</g>
<g>
	<path class="st0" d="M512,895.72c-17.67,0-32-14.33-32-32L479.99,160c0-17.67,14.33-32,32-32c17.67,0,32,14.33,32,32L544,863.72
		C544,881.39,529.67,895.72,512,895.72z"/>
</g>
</svg>
