<?xml version="1.0" encoding="utf-8"?>
<!-- Generator: Adobe Illustrator 23.0.0, SVG Export Plug-In . SVG Version: 6.00 Build 0)  -->
<svg version="1.1" id="图层_1" xmlns="http://www.w3.org/2000/svg" xmlns:xlink="http://www.w3.org/1999/xlink" x="0px" y="0px"
	 viewBox="0 0 1024 1024" style="enable-background:new 0 0 1024 1024;" xml:space="preserve">
<path d="M511.95,192.11c34.18,0,66.31,13.31,90.48,37.48s37.48,56.3,37.48,90.48c0,34.18-13.31,66.31-37.48,90.48
	c-24.17,24.17-56.3,37.48-90.48,37.48s-66.31-13.31-90.48-37.48c-24.17-24.17-37.48-56.3-37.48-90.48
	c0-34.18,13.31-66.31,37.48-90.48C445.64,205.42,477.77,192.11,511.95,192.11 M511.95,128.11C405.94,128.11,320,214.05,320,320.06
	c0,106.01,85.94,191.95,191.95,191.95S703.9,426.07,703.9,320.06C703.9,214.05,617.96,128.11,511.95,128.11L511.95,128.11z"/>
<g>
	<path d="M734.35,896.94H289.62c-32.73,0-62.91-16.36-80.72-43.77c-17.75-27.31-20.45-61.39-7.23-91.15l71.54-161
		c15.41-34.68,49.93-57.09,87.95-57.09h55.63c17.67,0,32,14.33,32,32s-14.33,32-32,32h-55.63c-12.75,0-24.32,7.49-29.46,19.08
		l-71.54,161c-4.46,10.03-3.58,21.07,2.41,30.28c6.05,9.31,15.91,14.64,27.06,14.64h444.73c11.15,0,21.01-5.34,27.06-14.65
		c5.99-9.21,6.86-20.25,2.4-30.28l-71.59-161c-5.15-11.58-16.71-19.07-29.46-19.07h-54.55c-17.67,0-32-14.33-32-32s14.33-32,32-32
		h54.55c38.01,0,72.52,22.4,87.94,57.06l71.59,161c13.23,29.76,10.54,63.84-7.21,91.16C797.26,880.57,767.09,896.94,734.35,896.94z"
		/>
</g>
</svg>
