<svg xmlns="http://www.w3.org/2000/svg" width="14.999" height="14.999" viewBox="0 0 14.999 14.999">
  <defs>
    <style>
      .cls-1 {
        fill: #aaa;
      }
    </style>
  </defs>
  <g id="组_669" data-name="组 669" transform="translate(-601 -182)">
    <path id="路径_251" data-name="路径 251" class="cls-1" d="M606.051,190.849a.543.543,0,0,0,0,1.085h4.34a.513.513,0,0,0,.543-.543v-4.34a.543.543,0,0,0-1.085,0v3.038l-6.619-6.728a.614.614,0,0,0-.868.868l6.728,6.619Zm0,0" transform="translate(-1.253 -1.253)"/>
    <path id="路径_252" data-name="路径 252" class="cls-1" d="M614.928,182H608.5a.536.536,0,0,0,0,1.071h5.892a.506.506,0,0,1,.536.536v11.785a.506.506,0,0,1-.536.536H602.607a.506.506,0,0,1-.536-.536V189.5a.536.536,0,0,0-1.071,0v6.428A1.152,1.152,0,0,0,602.071,197h12.856A1.152,1.152,0,0,0,616,195.928V183.071A1.074,1.074,0,0,0,614.928,182Zm0,0"/>
  </g>
</svg>
