<?xml version="1.0" encoding="utf-8"?>
<!-- Generator: Adobe Illustrator 23.0.0, SVG Export Plug-In . SVG Version: 6.00 Build 0)  -->
<svg version="1.1" id="图层_1" xmlns="http://www.w3.org/2000/svg" xmlns:xlink="http://www.w3.org/1999/xlink" x="0px" y="0px"
	 viewBox="0 0 1024 1024" style="enable-background:new 0 0 1024 1024;" xml:space="preserve">
<g>
	<path d="M872.99,364.81L553.24,98.16c-11.87-9.9-26.43-14.85-40.99-14.85c-14.54,0-29.09,4.94-40.95,14.82L151.05,364.81
		c-14.6,12.16-23.05,30.18-23.05,49.18V832c0,35.35,28.65,64,64,64h640c35.35,0,64-28.65,64-64V413.96
		C896,394.98,887.57,376.97,872.99,364.81z M832,832C832,832,832,832,832,832l-640,0c0,0,0,0,0,0V413.99l320.25-266.68l0,0
		L832,413.96V832z"/>
	<rect x="256" y="544" width="512" height="64"/>
</g>
</svg>
