<?xml version="1.0" encoding="utf-8"?>
<!-- Generator: Adobe Illustrator 23.0.0, SVG Export Plug-In . SVG Version: 6.00 Build 0)  -->
<svg version="1.1" id="图层_1" xmlns="http://www.w3.org/2000/svg" xmlns:xlink="http://www.w3.org/1999/xlink" x="0px" y="0px"
	 viewBox="0 0 1024 1024" style="enable-background:new 0 0 1024 1024;" xml:space="preserve">
<style type="text/css">
	.st0{fill:#FFCF10;}
</style>
<path class="st0" d="M768,896H320c-35.35,0-64-28.65-64-64V513.2c0-19,8.44-37.02,23.05-49.18l224.18-186.68
	c23.74-19.77,58.22-19.76,81.94,0.03l223.82,186.65c14.58,12.16,23.01,30.17,23.01,49.15V832C832,867.35,803.35,896,768,896z"/>
<path d="M512.25,147.31L512.25,147.31L832,413.96V832c0,0,0,0,0,0H192c0,0,0,0,0,0V413.99L512.25,147.31 M512.25,83.31
	c-14.54,0-29.09,4.94-40.95,14.82L151.05,364.81c-14.6,12.16-23.05,30.18-23.05,49.18V832c0,35.35,28.65,64,64,64h640
	c35.35,0,64-28.65,64-64V413.96c0-18.99-8.43-36.99-23.01-49.15L553.24,98.16C541.37,88.26,526.81,83.31,512.25,83.31L512.25,83.31z
	"/>
<rect x="256" y="544" width="512" height="64"/>
</svg>
