<?xml version="1.0" encoding="utf-8"?>
<!-- Generator: Adobe Illustrator 23.0.3, SVG Export Plug-In . SVG Version: 6.00 Build 0)  -->
<svg version="1.1" xmlns="http://www.w3.org/2000/svg" xmlns:xlink="http://www.w3.org/1999/xlink" x="0px" y="0px"
	 viewBox="0 0 1024 1024" style="enable-background:new 0 0 1024 1024;" xml:space="preserve">
<g id="图层_1">
	<path d="M832,160c17.64,0,32,14.36,32,32v640c0,17.64-14.36,32-32,32H192c-17.64,0-32-14.36-32-32V192c0-17.64,14.36-32,32-32H832
		 M832,128H192c-35.35,0-64,28.65-64,64v640c0,35.35,28.65,64,64,64h640c35.35,0,64-28.65,64-64V192C896,156.65,867.35,128,832,128
		L832,128z M767.53,384.2l-45.04-45.47L585.45,474.46L449.03,338.91L256.62,513.04l42.94,47.45l147.41-133.41L585.38,564.6
		L767.53,384.2z M768,640H256v64h512V640z"/>
</g>
<g id="图层_2">
</g>
</svg>
