<svg xmlns="http://www.w3.org/2000/svg" width="132.333" height="132.333" viewBox="0 0 132.333 132.333">
  <defs>
    <style>
      .cls-1, .cls-4 {
        fill: none;
      }

      .cls-1, .cls-2 {
        stroke: #ececec;
      }

      .cls-1 {
        stroke-width: 4px;
      }

      .cls-2 {
        fill: #ececec;
      }

      .cls-3 {
        stroke: none;
      }
    </style>
  </defs>
  <g id="组_625" data-name="组 625" transform="translate(-885.667 -381.667)">
    <g id="椭圆_11" data-name="椭圆 11" class="cls-1" transform="translate(885.667 381.667)">
      <circle class="cls-3" cx="66.167" cy="66.167" r="66.167"/>
      <circle class="cls-4" cx="66.167" cy="66.167" r="64.167"/>
    </g>
    <g id="组_628" data-name="组 628" transform="translate(671.677 -398.331)">
      <g id="组_627" data-name="组 627" transform="translate(255 812)">
        <g id="组_629" data-name="组 629" transform="translate(0)">
          <path id="路径_246" data-name="路径 246" class="cls-2" d="M301.922,1215.547H259.584a4.741,4.741,0,0,1-4.7-4.767v-28.658a4.741,4.741,0,0,1,4.7-4.767h42.338a4.741,4.741,0,0,1,4.7,4.767v28.658a4.741,4.741,0,0,1-4.7,4.767Zm-42.338-35.014a1.58,1.58,0,0,0-1.568,1.589v28.658a1.58,1.58,0,0,0,1.568,1.589h42.338a1.58,1.58,0,0,0,1.568-1.589v-28.658a1.58,1.58,0,0,0-1.568-1.589Zm0,0" transform="translate(-254.89 -1147.085)"/>
          <path id="路径_247" data-name="路径 247" class="cls-2" d="M345.46,844.583a1.568,1.568,0,0,1-1.568-1.568V830.348a18.376,18.376,0,0,1,36.752,0v12.667a1.568,1.568,0,1,1-3.136,0V830.348a15.24,15.24,0,0,0-30.48,0v12.667a1.568,1.568,0,0,1-1.568,1.568Zm0,0" transform="translate(-336.405 -811.975)"/>
        </g>
      </g>
    </g>
  </g>
</svg>
