<?xml version="1.0" encoding="utf-8"?>
<!-- Generator: Adobe Illustrator 23.0.3, SVG Export Plug-In . SVG Version: 6.00 Build 0)  -->
<svg version="1.1" id="图层_1" xmlns="http://www.w3.org/2000/svg" xmlns:xlink="http://www.w3.org/1999/xlink" x="0px" y="0px"
	 viewBox="0 0 136 28" style="enable-background:new 0 0 136 28;" xml:space="preserve">
<style type="text/css">
	.st0{fill:#666666;}
	.st1{fill:#F2A517;}
	.st2{fill:url(#SVGID_1_);}
</style>
<g>
	<path class="st0" d="M94.55,14.47c1.84-0.42,3.21-2.07,3.21-4.04v0c0-2.29-1.86-4.14-4.14-4.14H90.5v0h-2.07v0v13.97h2.07v-5.68
		h1.7l2.57,4.62c0.37,0.66,1.06,1.06,1.81,1.06l1.2,0L94.55,14.47z M90.5,8.36h3.12c1.14,0,2.07,0.93,2.07,2.07
		c0,1.14-0.93,2.07-2.07,2.07H90.5V8.36z"/>
	<g>
		<rect x="133.93" y="18.17" class="st1" width="2.07" height="2.07"/>
	</g>
	<path class="st0" d="M51.15,6.27v13.97h2.07v-5.69h6.24v-2.07h-6.24V8.34h5.18c1.14,0,2.07-0.93,2.07-2.07v0H51.15z"/>
	<path class="st0" d="M63.57,6.27v13.97h2.07v-5.69h6.21v-2.07h-6.21V8.34h5.18c1.14,0,2.07-0.93,2.07-2.07v0H63.57z"/>
	<rect x="116.35" y="6.27" class="st0" width="2.07" height="13.98"/>
	<path class="st0" d="M75.99,6.27v13.97h9.32v0c0-1.14-0.93-2.07-2.07-2.07h-5.18v-3.62h5.69v-2.07h-5.69V8.34h5.18
		c1.14,0,2.07-0.93,2.07-2.07v0H75.99z"/>
	<path class="st0" d="M131.87,6.27h-10.35v2.07h4.21v11.89h2.07V8.34h2C130.95,8.34,131.87,7.42,131.87,6.27L131.87,6.27z"/>
	<linearGradient id="SVGID_1_" gradientUnits="userSpaceOnUse" x1="5.9429" y1="19.522" x2="23.4494" y2="2.0155">
		<stop  offset="0" style="stop-color:#F26400"/>
		<stop  offset="0.0236" style="stop-color:#F26801"/>
		<stop  offset="0.3302" style="stop-color:#F89307"/>
		<stop  offset="0.6058" style="stop-color:#FCB20C"/>
		<stop  offset="0.8385" style="stop-color:#FEC50F"/>
		<stop  offset="1" style="stop-color:#FFCC10"/>
	</linearGradient>
	<path class="st2" d="M26.88,17.65c3.35-3.38,3.35-8.86-0.02-12.23l-5-5c-0.54-0.54-1.41-0.54-1.95,0c-0.54,0.54-0.54,1.41,0,1.95
		l5,5c2.29,2.29,2.3,6.01,0.03,8.32l-0.84,0.71c-2.3,1.6-5.49,1.37-7.54-0.68l-5-5c-0.54-0.54-1.41-0.54-1.95,0
		c-0.54,0.54-0.54,1.41,0,1.95l5,5c1.41,1.41,3.2,2.23,5.05,2.46l-4.89,4.11L4.48,14.16c-2.3-2.3-2.3-6.05,0-8.35
		c1.12-1.12,2.6-1.73,4.18-1.73s3.06,0.61,4.18,1.73l5,5c0.54,0.54,1.41,0.54,1.95,0c0.54-0.54,0.54-1.41,0-1.95l-5-5
		c-1.64-1.64-3.81-2.54-6.13-2.54s-4.49,0.9-6.13,2.54c-3.38,3.38-3.38,8.88,0.01,12.26l12.08,11.86l11.16-9.39
		c0.38-0.27,0.74-0.57,1.08-0.91c0,0,0.01-0.01,0.01-0.01C26.87,17.67,26.88,17.66,26.88,17.65z"/>
	<path class="st0" d="M108.92,12.49l4.35-6.22h-1.22c-0.68,0-1.31,0.33-1.7,0.89l-4.35,6.24V6.27h-2.07v13.96h2.07v-3.57l1.75-2.5
		l2.78,5.01c0.36,0.66,1.06,1.07,1.81,1.07h0.9L108.92,12.49z"/>
	<g>
		<path class="st0" d="M43.18,8.06c0.56,0,1.06,0.12,1.49,0.37c0.43,0.25,0.76,0.6,1,1.05c0.23,0.46,0.35,0.98,0.35,1.58v4.38
			c0,0.6-0.12,1.12-0.35,1.58c-0.23,0.46-0.57,0.81-1,1.05c-0.43,0.25-0.93,0.37-1.49,0.37c-0.56,0-1.06-0.12-1.49-0.37
			c-0.43-0.25-0.76-0.6-1-1.05c-0.23-0.46-0.35-0.98-0.35-1.58v-4.38c0-0.6,0.12-1.12,0.35-1.58c0.23-0.46,0.57-0.81,1-1.05
			C42.12,8.18,42.61,8.06,43.18,8.06 M43.18,5.99c-0.93,0-1.78,0.22-2.52,0.65c-0.78,0.45-1.39,1.09-1.81,1.91
			c-0.38,0.75-0.58,1.6-0.58,2.52v4.38c0,0.93,0.19,1.77,0.58,2.52c0.42,0.82,1.03,1.46,1.81,1.9c0.75,0.43,1.59,0.65,2.52,0.65
			c0.93,0,1.78-0.22,2.52-0.65c0.78-0.45,1.39-1.09,1.81-1.91c0.38-0.75,0.58-1.6,0.58-2.52v-4.38c0-0.93-0.19-1.77-0.58-2.52
			c-0.42-0.82-1.03-1.46-1.81-1.91C44.95,6.21,44.11,5.99,43.18,5.99L43.18,5.99z"/>
	</g>
</g>
</svg>
