<?xml version="1.0" encoding="utf-8"?>
<!-- Generator: Adobe Illustrator 23.0.0, SVG Export Plug-In . SVG Version: 6.00 Build 0)  -->
<svg version="1.1" id="图层_1" xmlns="http://www.w3.org/2000/svg" xmlns:xlink="http://www.w3.org/1999/xlink" x="0px" y="0px"
	 viewBox="0 0 1024 1024" style="enable-background:new 0 0 1024 1024;" xml:space="preserve">
<style type="text/css">
	.st0{fill:none;stroke:#000000;stroke-width:64;stroke-miterlimit:10;}
</style>
<g>
	<path class="st0" d="M932.56,666.74"/>
</g>
<g>
	<g>
		<path d="M511.15,898.65c-20,0-40.06-1.57-60.08-4.7c-49.47-7.75-96.23-24.68-138.98-50.34c-44.28-26.58-82.28-61.37-112.94-103.42
			s-52.18-88.87-63.95-139.15c-11.36-48.55-13.2-98.25-5.45-147.71c7.75-49.47,24.68-96.23,50.34-138.98
			c26.58-44.28,61.37-82.28,103.42-112.94c124.12-90.51,289.95-98.77,422.47-21.06c15.25,8.94,20.36,28.55,11.42,43.79
			c-8.94,15.24-28.55,20.36-43.79,11.42c-110.54-64.83-248.87-57.93-352.39,17.56c-69.41,50.62-114.96,125.23-128.25,210.11
			s7.27,169.84,57.88,239.25S376.1,817.43,460.98,830.72c16.85,2.64,33.71,3.94,50.44,3.94c67.56,0,133.18-21.26,188.82-61.83
			c108.47-79.1,156.65-218.95,119.91-348c-4.84-17,5.02-34.7,22.01-39.54c17-4.84,34.7,5.02,39.54,22.01
			c21.39,75.13,19.53,154.14-5.4,228.5c-25.49,76.06-73.33,141.32-138.35,188.74c-42.05,30.67-88.87,52.18-139.15,63.95
			C569.89,895.26,540.58,898.64,511.15,898.65z"/>
	</g>
</g>
<g>
	<circle cx="511.75" cy="512.25" r="64"/>
</g>
<g>
	<circle cx="320" cy="512.08" r="64"/>
</g>
<g>
	<circle cx="704" cy="512" r="64"/>
</g>
</svg>
