<svg xmlns="http://www.w3.org/2000/svg" width="16" height="16" viewBox="0 0 16 16">
  <g id="组_268" data-name="组 268" transform="translate(-1256.33 -1168.521)">
    <circle id="椭圆_21" data-name="椭圆 21" cx="0.841" cy="0.841" r="0.841" transform="translate(1258.994 1175.68)"/>
    <circle id="椭圆_22" data-name="椭圆 22" cx="0.841" cy="0.841" r="0.841" transform="translate(1262.158 1175.68)"/>
    <circle id="椭圆_23" data-name="椭圆 23" cx="0.841" cy="0.841" r="0.841" transform="translate(1265.321 1175.68)"/>
    <path id="路径_87" data-name="路径 87" d="M1271,1168.521H1260.33a1.333,1.333,0,0,0-1.333,1.333v1.333h-1.333a1.333,1.333,0,0,0-1.333,1.333v8a1.333,1.333,0,0,0,1.333,1.333h2.664l2.67,2.667,2.667-2.667h2.667a1.333,1.333,0,0,0,1.333-1.333v-1.333H1271a1.333,1.333,0,0,0,1.333-1.333v-8A1.333,1.333,0,0,0,1271,1168.521Zm-2.667,12h-3.219l-.39.391-1.724,1.724-1.727-1.725-.39-.39h-3.216v-8h10.667Zm2.667-2.667h-1.333v-5.333a1.333,1.333,0,0,0-1.333-1.333h-8v-1.333H1271Z"/>
  </g>
</svg>
