<svg xmlns="http://www.w3.org/2000/svg" width="80" height="56" viewBox="0 0 80 56">
  <defs>
    <style>
      .cls-1 {
        fill: #fff;
        stroke: #aaa;
      }

      .cls-2 {
        fill: #ffcf10;
      }

      .cls-3 {
        stroke: none;
      }

      .cls-4 {
        fill: none;
      }
    </style>
  </defs>
  <g id="组_1440" data-name="组 1440" transform="translate(-1661 -1566)">
    <g id="矩形_1334" data-name="矩形 1334" class="cls-1" transform="translate(1661 1566)">
      <rect class="cls-3" width="80" height="56" rx="5"/>
      <rect class="cls-4" x="0.5" y="0.5" width="79" height="55" rx="4.5"/>
    </g>
    <path id="路径_834" data-name="路径 834" class="cls-2" d="M1253.077,1478.229a14.788,14.788,0,0,0-29.495,0h-.034v6.162h.034v2.944a3.909,3.909,0,0,0,3.919,3.9h.034a3.909,3.909,0,0,0,3.919-3.9v-5.169a3.91,3.91,0,0,0-3.919-3.9h-.034a3.95,3.95,0,0,0-.516.035v-.069h.378a11.02,11.02,0,0,1,21.9-.307l-.068,0h-.034a3.909,3.909,0,0,0-3.919,3.9v5.17a3.909,3.909,0,0,0,3.919,3.9h.034a3.909,3.909,0,0,0,3.919-3.9v-8.764Z" transform="translate(462.7 115.883)"/>
  </g>
</svg>
