<?xml version="1.0" encoding="utf-8"?>
<!-- Generator: Adobe Illustrator 23.0.3, SVG Export Plug-In . SVG Version: 6.00 Build 0)  -->
<svg version="1.1" id="图层_1" xmlns="http://www.w3.org/2000/svg" xmlns:xlink="http://www.w3.org/1999/xlink" x="0px" y="0px"
	 viewBox="0 0 1024 1024" style="enable-background:new 0 0 1024 1024;" xml:space="preserve">
<path d="M768.14,192v640h-512V192H768.14 M768.14,128h-512c-35.35,0-64,28.65-64,64v640c0,35.35,28.65,64,64,64h512
	c35.35,0,64-28.65,64-64V192C832.14,156.65,803.49,128,768.14,128L768.14,128z M703.81,767.81V704H320.33v63.81H703.81z
	 M703.63,704.12v63.56H320.52v-63.56H703.63 M704,703.87H320.14v64.06H704V703.87L704,703.87z M703.81,639.87v-63.81H320.33v63.81
	H703.81z M703.63,576.19v63.56H320.52v-63.56H703.63 M704,575.94H320.14V640H704V575.94L704,575.94z M677.07,301.16l-45.25-45.25
	L466.31,421.41l-67.39-67.74l-45.37,45.14l112.65,113.23L677.07,301.16z"/>
</svg>
