<?xml version="1.0" encoding="utf-8"?>
<!-- Generator: Adobe Illustrator 23.0.0, SVG Export Plug-In . SVG Version: 6.00 Build 0)  -->
<svg version="1.1" xmlns="http://www.w3.org/2000/svg" xmlns:xlink="http://www.w3.org/1999/xlink" x="0px" y="0px"
	 viewBox="0 0 1024 1024" style="enable-background:new 0 0 1024 1024;" xml:space="preserve">
<g id="图层_1">
	<g>
		<path d="M512.11,896.7c-71.31,0-129.33-58.02-129.33-129.33h64c0,36.03,29.31,65.33,65.33,65.33s65.33-29.31,65.33-65.33h64
			C641.44,838.68,583.43,896.7,512.11,896.7z"/>
	</g>
	<g>
		<path d="M512.28,256c51.21,0,99.36,19.94,135.57,56.15S704,396.51,704,447.72v188.69c0,12.23,2.89,24.48,8.36,35.43L728.45,704
			H295.96l16.12-31.95c5.55-11.01,8.48-23.34,8.48-35.67V447.72c0-51.21,19.94-99.36,56.15-135.57
			C412.92,275.94,461.07,256,512.28,256 M512.28,192L512.28,192c-141.23,0-255.72,114.49-255.72,255.72v188.66
			c0,2.38-0.56,4.73-1.63,6.85l-45.12,89.45c-8.17,16.2,3.6,35.32,21.74,35.32H792.6c18.1,0,29.87-19.05,21.78-35.24l-44.77-89.55
			c-1.06-2.11-1.61-4.44-1.61-6.8V447.72C768,306.49,653.51,192,512.28,192L512.28,192z"/>
	</g>
	<g>
		<path d="M512,128c-35.35,0-64,28.65-64,64s28.65,64,64,64s64-28.65,64-64S547.35,128,512,128L512,128z"/>
	</g>
	<g>
		<polygon points="576,192 448,192 448,256 576,256 576,192 		"/>
	</g>
</g>
<g id="图层_2">
</g>
</svg>
