<?xml version="1.0" encoding="utf-8"?>
<!-- Generator: Adobe Illustrator 23.0.3, SVG Export Plug-In . SVG Version: 6.00 Build 0)  -->
<svg version="1.1" id="图层_1" xmlns="http://www.w3.org/2000/svg" xmlns:xlink="http://www.w3.org/1999/xlink" x="0px" y="0px"
	 viewBox="0 0 1024 1024" style="enable-background:new 0 0 1024 1024;" xml:space="preserve">
<style type="text/css">
	.st0{fill-rule:evenodd;clip-rule:evenodd;}
</style>
<path d="M192,320h512c0,0,0,0,0,0v512c0,0,0,0,0,0H192c0,0,0,0,0,0V320C192,320,192,320,192,320L192,320 M192,256
	c-35.35,0-64,28.65-64,64v512c0,35.35,28.65,64,64,64h512c35.35,0,64-28.65,64-64V320c0-35.35-28.65-64-64-64H192L192,256z"/>
<circle class="st0" cx="320" cy="448" r="64"/>
<path d="M320,128h512c35.35,0,64,28.65,64,64v512c0,35.35-28.65,64-64,64h-64v-64h64c0,0,0,0,0,0V192c0,0,0,0,0,0H320h0v64h-64v-64
	C256,156.65,284.65,128,320,128z"/>
<rect x="256" y="576" transform="matrix(-1 -4.489710e-11 4.489710e-11 -1 895.9999 1216)" class="st0" width="384" height="64"/>
<rect x="256" y="704" transform="matrix(-1 -4.489710e-11 4.489710e-11 -1 895.9999 1472)" class="st0" width="384" height="64"/>
</svg>
