<?xml version="1.0" encoding="utf-8"?>
<!-- Generator: Adobe Illustrator 23.0.0, SVG Export Plug-In . SVG Version: 6.00 Build 0)  -->
<svg version="1.1" id="图层_1" xmlns="http://www.w3.org/2000/svg" xmlns:xlink="http://www.w3.org/1999/xlink" x="0px" y="0px"
	 viewBox="0 0 1024 1024" style="enable-background:new 0 0 1024 1024;" xml:space="preserve">
<style type="text/css">
	.st0{fill:#231815;}
</style>
<g>
	<path class="st0" d="M160.33,544c-17.67,0-32-14.32-32-31.99c0-17.67,14.32-32,31.99-32.01l703.47-0.18c0,0,0.01,0,0.01,0
		c17.67,0,32,14.32,32,31.99c0,17.67-14.32,32-31.99,32.01L160.33,544C160.33,544,160.33,544,160.33,544z"/>
</g>
<g>
	<path class="st0" d="M512.15,895.64c-17.67,0-32-14.32-32-31.99l-0.18-703.47c0-17.67,14.32-32,31.99-32.01c0,0,0.01,0,0.01,0
		c17.67,0,32,14.32,32,31.99l0.18,703.47C544.16,881.31,529.84,895.64,512.15,895.64C512.16,895.64,512.16,895.64,512.15,895.64z"/>
</g>
</svg>
