<?xml version="1.0" encoding="utf-8"?>
<!-- Generator: Adobe Illustrator 23.0.3, SVG Export Plug-In . SVG Version: 6.00 Build 0)  -->
<svg version="1.1" id="图层_1" xmlns="http://www.w3.org/2000/svg" xmlns:xlink="http://www.w3.org/1999/xlink" x="0px" y="0px"
	 viewBox="0 0 1024 1024" style="enable-background:new 0 0 1024 1024;" xml:space="preserve">
<path d="M832,256v448H576h-15.11l-13.51,6.76L384,792.45V768v-64h-64H192V256H832 M832,192H192c-35.35,0-64,28.65-64,64v448
	c0,35.35,28.65,64,64,64h128v128l256-128h256c35.35,0,64-28.65,64-64V256C896,220.65,867.35,192,832,192L832,192z M703.82,448h-256
	v64h256V448z M402.16,392c-37.24,0-69.15,23.25-81.98,56h82.25v0.01c17.54,0.15,31.72,14.41,31.72,31.99s-14.18,31.84-31.72,31.99
	V512h-82.25c12.83,32.75,44.74,56,81.98,56c48.52,0,88-39.48,88-88S450.68,392,402.16,392z"/>
</svg>
