<?xml version="1.0" encoding="utf-8"?>
<!-- Generator: Adobe Illustrator 23.0.0, SVG Export Plug-In . SVG Version: 6.00 Build 0)  -->
<svg version="1.1" id="图层_1" xmlns="http://www.w3.org/2000/svg" xmlns:xlink="http://www.w3.org/1999/xlink" x="0px" y="0px"
	 viewBox="0 0 1024 1024" style="enable-background:new 0 0 1024 1024;" xml:space="preserve">
<style type="text/css">
	.st0{fill:#FFCF10;}
</style>
<g>
	<path class="st0" d="M832,512c-122.86,0-320,0-320,0s0-190.81,0-320C688.73,192,832,335.27,832,512z"/>
</g>
<path d="M640.04,162.02c17.07,3.8,33.77,9.15,50.01,16.01c34.88,14.75,66.21,35.88,93.14,62.81c26.93,26.93,48.06,58.26,62.81,93.14
	c6.87,16.24,12.21,32.94,16.01,50.01H640.04V162.02 M576.04,91.04c0,144.12,0,356.96,0,356.96s219.91,0,356.96,0
	C932.99,250.86,773.18,91.04,576.04,91.04L576.04,91.04z"/>
<path d="M448,198.37V512v64h64h313.63c-4.2,20.7-10.46,40.93-18.75,60.54c-16.11,38.1-39.2,72.33-68.6,101.74
	c-29.41,29.41-63.64,52.49-101.74,68.6C597.13,823.55,555.23,832,512,832s-85.13-8.45-124.54-25.12
	c-38.1-16.11-72.33-39.2-101.74-68.6c-29.41-29.41-52.49-63.64-68.6-101.74C200.45,597.13,192,555.23,192,512
	s8.45-85.13,25.12-124.54c16.11-38.1,39.2-72.33,68.6-101.74c29.41-29.41,63.64-52.49,101.74-68.6
	C407.07,208.83,427.3,202.57,448,198.37 M512,128c-212.08,0-384,171.92-384,384c0,212.08,171.92,384,384,384
	c212.08,0,384-171.92,384-384H512V128L512,128z"/>
</svg>
