<?xml version="1.0" encoding="utf-8"?>
<!-- Generator: Adobe Illustrator 23.0.0, SVG Export Plug-In . SVG Version: 6.00 Build 0)  -->
<svg version="1.1" id="图层_1" xmlns="http://www.w3.org/2000/svg" xmlns:xlink="http://www.w3.org/1999/xlink" x="0px" y="0px"
	 viewBox="0 0 1024 1024" style="enable-background:new 0 0 1024 1024;" xml:space="preserve">
<g>
	<path d="M448,192c34.59,0,68.11,6.76,99.63,20.09c30.48,12.89,57.86,31.36,81.39,54.89c23.53,23.53,42,50.92,54.89,81.39
		C697.24,379.89,704,413.41,704,448s-6.76,68.11-20.09,99.63c-12.89,30.48-31.36,57.86-54.89,81.39
		c-23.53,23.53-50.92,42-81.39,54.89C516.11,697.24,482.59,704,448,704s-68.11-6.76-99.63-20.09
		c-30.48-12.89-57.86-31.36-81.39-54.89c-23.53-23.53-42-50.92-54.89-81.39C198.76,516.11,192,482.59,192,448
		s6.76-68.11,20.09-99.63c12.89-30.48,31.36-57.86,54.89-81.39c23.53-23.53,50.92-42,81.39-54.89C379.89,198.76,413.41,192,448,192
		 M448,128c-176.73,0-320,143.27-320,320s143.27,320,320,320s320-143.27,320-320S624.73,128,448,128L448,128z"/>
</g>
<g>
	<path d="M863.86,895.86c-8.19,0-16.38-3.12-22.63-9.37L632.5,677.76c-12.5-12.5-12.5-32.76,0-45.25c12.5-12.5,32.76-12.5,45.25,0
		l208.72,208.72c12.5,12.5,12.5,32.76,0,45.25C880.23,892.73,872.04,895.86,863.86,895.86z"/>
</g>
</svg>
