<?xml version="1.0" encoding="utf-8"?>
<!-- Generator: Adobe Illustrator 23.0.0, SVG Export Plug-In . SVG Version: 6.00 Build 0)  -->
<svg version="1.1" id="图层_1" xmlns="http://www.w3.org/2000/svg" xmlns:xlink="http://www.w3.org/1999/xlink" x="0px" y="0px"
	 viewBox="0 0 1024 1024" style="enable-background:new 0 0 1024 1024;" xml:space="preserve">
<style type="text/css">
	.st0{fill:#231815;}
</style>
<path class="st0" d="M615.79,201.36c12.89,4.25,25.48,9.3,37.74,15.14l-0.65,16.49c-1.38,35.12,11.27,68.41,35.62,93.74
	c24.01,24.97,57.62,39.29,92.22,39.29c1.69,0,3.4-0.03,5.1-0.1l19.85-0.78c6.13,12.13,11.47,24.6,16.02,37.38l-12.13,11.21
	c-26.13,24.16-41.12,58.42-41.12,94.01c0,35.59,14.99,69.85,41.13,94l14.61,13.5c-4.25,12.89-9.3,25.48-15.14,37.75l-16.49-0.65
	c-1.69-0.07-3.39-0.1-5.08-0.1c-34.6,0-68.22,14.32-92.23,39.3c-24.35,25.33-37,58.63-35.62,93.75l0.78,19.85
	c-12.13,6.13-24.6,11.47-37.38,16.02l-11.21-12.13c-24.15-26.13-58.41-41.12-94-41.12c-35.59,0-69.85,14.99-94.01,41.13l-13.5,14.61
	c-12.89-4.25-25.48-9.3-37.75-15.14l0.65-16.49c1.38-35.12-11.27-68.41-35.63-93.74c-24.01-24.97-57.62-39.29-92.23-39.29
	c0,0-0.01,0-0.01,0c-1.69,0-3.4,0.03-5.08,0.1l-19.85,0.78c-6.13-12.12-11.48-24.6-16.02-37.38l12.13-11.21
	c26.13-24.16,41.12-58.42,41.12-94c0-35.59-14.99-69.85-41.13-94l-14.61-13.5c4.25-12.88,9.3-25.48,15.14-37.74l16.5,0.65
	c1.69,0.07,3.39,0.1,5.08,0.1c34.6,0,68.22-14.32,92.23-39.3c24.35-25.33,37-58.63,35.62-93.75l-0.78-19.85
	c12.13-6.13,24.6-11.47,37.38-16.02l11.21,12.13c24.15,26.13,58.41,41.11,93.99,41.11c35.59,0,69.85-14.99,94.01-41.13
	L615.79,201.36 M595,129.56l-39.72,42.98c-12.67,13.71-29.84,20.56-47,20.56c-17.17,0-34.33-6.85-47-20.56l-38.09-41.2
	c-43.84,10.27-85.11,27.88-122.97,52.48l2.3,58.43c1.44,36.44-27.77,66.52-63.9,66.52c-0.85,0-1.71-0.02-2.57-0.05l-56.03-2.2
	c-23.81,38.37-40.56,79.98-49.92,124.04l42.98,39.72c27.42,25.34,27.42,68.66,0.01,94l-41.21,38.09
	c10.27,43.84,27.88,85.11,52.48,122.97l58.43-2.3c0.86-0.03,1.72-0.05,2.58-0.05c36.13,0,65.33,30.07,63.9,66.52l-2.2,56.03
	c38.37,23.81,79.98,40.56,124.04,49.92l39.71-42.97c12.67-13.71,29.84-20.56,47-20.56c17.17,0,34.33,6.85,47,20.56l38.09,41.21
	c43.84-10.27,85.11-27.88,122.98-52.48l-2.31-58.43c-1.44-36.44,27.77-66.53,63.9-66.53c0.85,0,1.71,0.02,2.57,0.05l56.03,2.2
	c23.82-38.37,40.56-79.99,49.92-124.04l-42.98-39.71c-27.42-25.34-27.42-68.66-0.01-94l41.2-38.09
	c-10.27-43.84-27.88-85.1-52.48-122.98l-58.43,2.31c-0.86,0.03-1.72,0.05-2.58,0.05c-36.12,0-65.33-30.08-63.9-66.52l2.2-56.02
	C680.68,155.66,639.06,138.91,595,129.56L595,129.56z"/>
<path class="st0" d="M513.06,448c35.14,0,63.72,28.59,63.72,63.72s-28.59,63.72-63.72,63.72s-63.72-28.59-63.72-63.72
	S477.92,448,513.06,448 M513.06,384c-70.54,0-127.72,57.18-127.72,127.72s57.18,127.72,127.72,127.72s127.72-57.18,127.72-127.72
	S583.6,384,513.06,384L513.06,384z"/>
</svg>
