<?xml version="1.0" encoding="utf-8"?>
<!-- Generator: Adobe Illustrator 23.0.0, SVG Export Plug-In . SVG Version: 6.00 Build 0)  -->
<svg version="1.1" id="图层_1" xmlns="http://www.w3.org/2000/svg" xmlns:xlink="http://www.w3.org/1999/xlink" x="0px" y="0px"
	 viewBox="0 0 1024 1024" style="enable-background:new 0 0 1024 1024;" xml:space="preserve">
<path d="M850.99,806.48l-44.51,44.51c-24.99,24.99-65.52,24.99-90.51,0L377.06,512.07c-24.99-24.99-24.99-65.52,0-90.51l44.51-44.51
	c24.99-24.99,65.52-24.99,90.51,0l338.91,338.91C875.98,740.96,875.98,781.49,850.99,806.48z"/>
<path d="M565.02,202.98c-76.11-76.11-188.22-94.27-281.51-54.49l128.59,128.59c24.99,24.99,24.99,65.52,0,90.51l-44.51,44.51
	c-24.99,24.99-65.52,24.99-90.51,0L148.49,283.5c-39.77,93.3-21.62,205.4,54.49,281.52c99.97,99.97,262.06,99.97,362.04,0
	S664.99,302.95,565.02,202.98z"/>
</svg>
