<svg xmlns="http://www.w3.org/2000/svg" width="22" height="22" viewBox="0 0 22 22">
  <defs>
    <style>
      .cls-1 {
        fill: #ffcf10;
      }
    </style>
  </defs>
  <g id="组_668" data-name="组 668" transform="translate(-725 -493)">
    <ellipse id="椭圆_111" data-name="椭圆 111" class="cls-1" cx="4" cy="5.5" rx="4" ry="5.5" transform="translate(732 494)"/>
    <g id="组_665" data-name="组 665">
      <ellipse id="椭圆_112" data-name="椭圆 112" class="cls-1" cx="10" cy="2.5" rx="10" ry="2.5" transform="translate(726 510)"/>
      <g id="组_524" data-name="组 524" transform="translate(-536.935 -531)">
        <path id="路径_219" data-name="路径 219" d="M1272.935,1504.116c-6.05,0-11,2.475-11,5.5v2.75h22v-2.75C1283.935,1506.591,1278.985,1504.116,1272.935,1504.116Zm9.166,6.418h-18.332v-.917c0-.7.85-1.561,2.218-2.245a13.018,13.018,0,0,1,3.058-1.028,19.413,19.413,0,0,1,7.781,0,13.028,13.028,0,0,1,3.058,1.028c1.368.684,2.217,1.544,2.217,2.245Z" transform="translate(0 -466.369)"/>
        <path id="路径_220" data-name="路径 220" d="M1454.672,1032.937a5.1,5.1,0,0,0,4.709,3.9h0a5.079,5.079,0,0,0,4.686-3.883l.448-1.5a5.5,5.5,0,1,0-10.287,0Zm2.108-6.029a3.668,3.668,0,0,1,6.022,3.9l-.024.063-.019.064-.448,1.5a2.966,2.966,0,0,1-5.882-.019l-.443-1.482-.019-.064-.024-.062a3.672,3.672,0,0,1,.836-3.9Z" transform="translate(-186.438)"/>
      </g>
    </g>
  </g>
</svg>
