<?xml version="1.0" encoding="utf-8"?>
<!-- Generator: Adobe Illustrator 23.0.0, SVG Export Plug-In . SVG Version: 6.00 Build 0)  -->
<svg version="1.1" id="图层_1" xmlns="http://www.w3.org/2000/svg" xmlns:xlink="http://www.w3.org/1999/xlink" x="0px" y="0px"
	 viewBox="0 0 1024 1024" style="enable-background:new 0 0 1024 1024;" xml:space="preserve">
<g>
	<path d="M511.93,672.56c47.15,0,92.83,4.63,135.79,13.75c39.8,8.45,76.71,20.86,106.75,35.88c47.74,23.87,77.4,53.9,77.4,78.37v32
		H191.99v-32c0-24.47,29.66-54.49,77.4-78.37c30.04-15.02,66.95-27.43,106.75-35.88C419.09,677.18,464.78,672.56,511.93,672.56
		 M511.93,608.56c-211.19,0-383.94,86.37-383.94,192v96h767.87v-96C895.86,694.93,723.11,608.56,511.93,608.56L511.93,608.56z"/>
	<path d="M511.93,192.44c34.19,0,66.33,13.31,90.51,37.49c24.18,24.18,37.49,56.32,37.49,90.51c0,15.66-2.79,30.96-8.3,45.45
		l-0.83,2.18l-0.67,2.24l-15.65,52.41c-16.05,53.75-57.14,89.86-102.24,89.86c-45.47,0-86.88-36.38-103.05-90.53l-15.45-51.74
		l-0.67-2.24l-0.83-2.18c-5.51-14.49-8.3-29.78-8.3-45.45c0-34.19,13.31-66.33,37.49-90.51
		C445.59,205.76,477.74,192.44,511.93,192.44 M511.93,128.44c-106.04,0-192,85.96-192,192c0,24.02,4.42,46.99,12.48,68.18
		l15.45,51.74c24.36,81.56,90.31,136.22,164.38,136.22h0c73.7,0,139.32-54.38,163.57-135.55l15.65-52.41
		c8.05-21.19,12.47-44.17,12.47-68.19C703.93,214.4,617.96,128.44,511.93,128.44L511.93,128.44z"/>
</g>
</svg>
