<?xml version="1.0" encoding="utf-8"?>
<!-- Generator: Adobe Illustrator 23.0.0, SVG Export Plug-In . SVG Version: 6.00 Build 0)  -->
<svg version="1.1" id="图层_1" xmlns="http://www.w3.org/2000/svg" xmlns:xlink="http://www.w3.org/1999/xlink" x="0px" y="0px"
	 viewBox="0 0 1024 1024" style="enable-background:new 0 0 1024 1024;" xml:space="preserve">
<g>
	<path d="M511.97,192.03c43.23,0,85.13,8.45,124.54,25.12c38.1,16.11,72.33,39.2,101.74,68.6c29.41,29.41,52.49,63.64,68.6,101.74
		c16.67,39.41,25.12,81.31,25.12,124.54s-8.45,85.13-25.12,124.54c-16.11,38.1-39.2,72.33-68.6,101.74
		c-29.41,29.41-63.64,52.49-101.74,68.6c-39.41,16.67-81.31,25.12-124.54,25.12s-85.13-8.45-124.54-25.12
		c-38.1-16.11-72.33-39.2-101.74-68.6c-29.41-29.41-52.49-63.64-68.6-101.74c-16.67-39.41-25.12-81.31-25.12-124.54
		s8.45-85.13,25.12-124.54c16.11-38.1,39.2-72.33,68.6-101.74c29.41-29.41,63.64-52.49,101.74-68.6
		C426.84,200.48,468.74,192.03,511.97,192.03 M511.97,128.03c-212.08,0-384,171.92-384,384c0,212.08,171.92,384,384,384
		c212.08,0,384-171.92,384-384C895.97,299.95,724.05,128.03,511.97,128.03L511.97,128.03z"/>
</g>
<g>
	<path d="M647.76,689.76c-10.75,0-21.5-4.1-29.7-12.3L346.54,405.93c-16.4-16.4-16.4-42.99,0-59.4c16.4-16.4,43-16.4,59.4,0
		l271.53,271.53c16.4,16.4,16.4,43,0,59.4C669.26,685.66,658.51,689.76,647.76,689.76z"/>
</g>
</svg>
